<mxfile host="app.diagrams.net" agent="Mozilla/5.0 (Macintosh; Intel Mac OS X 10_15_7) AppleWebKit/537.36 (KHTML, like Gecko) Chrome/137.0.0.0 Safari/537.36" version="27.0.9">
  <diagram name="第 1 页" id="5dWpC3py-_dd6PvZDtpN">
    <mxGraphModel dx="1682" dy="888" grid="1" gridSize="10" guides="1" tooltips="1" connect="1" arrows="1" fold="1" page="1" pageScale="1" pageWidth="827" pageHeight="1169" math="0" shadow="0">
      <root>
        <mxCell id="0" />
        <mxCell id="1" parent="0" />
        <mxCell id="kAjAqvouVaA5MMBCOgn0-8" style="edgeStyle=orthogonalEdgeStyle;rounded=0;orthogonalLoop=1;jettySize=auto;html=1;" edge="1" parent="1" source="kAjAqvouVaA5MMBCOgn0-6">
          <mxGeometry relative="1" as="geometry">
            <mxPoint x="220" y="100" as="targetPoint" />
          </mxGeometry>
        </mxCell>
        <mxCell id="kAjAqvouVaA5MMBCOgn0-13" value="异步" style="edgeLabel;html=1;align=center;verticalAlign=middle;resizable=0;points=[];" vertex="1" connectable="0" parent="kAjAqvouVaA5MMBCOgn0-8">
          <mxGeometry x="-0.1064" y="1" relative="1" as="geometry">
            <mxPoint as="offset" />
          </mxGeometry>
        </mxCell>
        <mxCell id="kAjAqvouVaA5MMBCOgn0-6" value="&lt;span style=&quot;font-size: 14px; text-wrap-mode: nowrap;&quot;&gt;quartz 触发任务&lt;/span&gt;" style="rounded=1;whiteSpace=wrap;html=1;" vertex="1" parent="1">
          <mxGeometry x="30" y="80" width="120" height="40" as="geometry" />
        </mxCell>
        <mxCell id="kAjAqvouVaA5MMBCOgn0-15" value="" style="edgeStyle=orthogonalEdgeStyle;rounded=0;orthogonalLoop=1;jettySize=auto;html=1;" edge="1" parent="1" source="kAjAqvouVaA5MMBCOgn0-10" target="kAjAqvouVaA5MMBCOgn0-14">
          <mxGeometry relative="1" as="geometry" />
        </mxCell>
        <mxCell id="kAjAqvouVaA5MMBCOgn0-21" style="edgeStyle=orthogonalEdgeStyle;rounded=0;orthogonalLoop=1;jettySize=auto;html=1;exitX=0.5;exitY=1;exitDx=0;exitDy=0;entryX=0.5;entryY=0;entryDx=0;entryDy=0;curved=1;" edge="1" parent="1" source="kAjAqvouVaA5MMBCOgn0-10" target="kAjAqvouVaA5MMBCOgn0-19">
          <mxGeometry relative="1" as="geometry" />
        </mxCell>
        <mxCell id="kAjAqvouVaA5MMBCOgn0-22" style="edgeStyle=orthogonalEdgeStyle;rounded=0;orthogonalLoop=1;jettySize=auto;html=1;exitX=0.5;exitY=1;exitDx=0;exitDy=0;entryX=0.5;entryY=0;entryDx=0;entryDy=0;curved=1;" edge="1" parent="1" source="kAjAqvouVaA5MMBCOgn0-10" target="kAjAqvouVaA5MMBCOgn0-20">
          <mxGeometry relative="1" as="geometry" />
        </mxCell>
        <mxCell id="kAjAqvouVaA5MMBCOgn0-10" value="拉取 es 数据" style="rounded=1;whiteSpace=wrap;html=1;fontSize=14;" vertex="1" parent="1">
          <mxGeometry x="220" y="80" width="120" height="40" as="geometry" />
        </mxCell>
        <mxCell id="kAjAqvouVaA5MMBCOgn0-28" value="结束" style="edgeStyle=orthogonalEdgeStyle;rounded=0;orthogonalLoop=1;jettySize=auto;html=1;entryX=0.5;entryY=0;entryDx=0;entryDy=0;curved=1;exitX=0.5;exitY=1;exitDx=0;exitDy=0;" edge="1" parent="1" source="kAjAqvouVaA5MMBCOgn0-14" target="kAjAqvouVaA5MMBCOgn0-25">
          <mxGeometry relative="1" as="geometry">
            <Array as="points">
              <mxPoint x="280" y="290" />
              <mxPoint x="715" y="290" />
            </Array>
          </mxGeometry>
        </mxCell>
        <mxCell id="kAjAqvouVaA5MMBCOgn0-46" style="edgeStyle=orthogonalEdgeStyle;rounded=0;orthogonalLoop=1;jettySize=auto;html=1;dashed=1;" edge="1" parent="1" source="kAjAqvouVaA5MMBCOgn0-14" target="kAjAqvouVaA5MMBCOgn0-38">
          <mxGeometry relative="1" as="geometry" />
        </mxCell>
        <mxCell id="kAjAqvouVaA5MMBCOgn0-14" value="第二个一分钟窗口" style="whiteSpace=wrap;html=1;fontSize=14;rounded=1;" vertex="1" parent="1">
          <mxGeometry x="220" y="250" width="120" height="30" as="geometry" />
        </mxCell>
        <mxCell id="kAjAqvouVaA5MMBCOgn0-17" value="" style="edgeStyle=none;orthogonalLoop=1;jettySize=auto;html=1;rounded=0;dashed=1;entryX=0;entryY=0.5;entryDx=0;entryDy=0;" edge="1" parent="1" target="kAjAqvouVaA5MMBCOgn0-37">
          <mxGeometry width="100" relative="1" as="geometry">
            <mxPoint x="50" y="170" as="sourcePoint" />
            <mxPoint x="730" y="170" as="targetPoint" />
            <Array as="points" />
          </mxGeometry>
        </mxCell>
        <mxCell id="kAjAqvouVaA5MMBCOgn0-36" value="依次拉取每分钟的 es 数据" style="edgeLabel;html=1;align=center;verticalAlign=middle;resizable=0;points=[];" vertex="1" connectable="0" parent="kAjAqvouVaA5MMBCOgn0-17">
          <mxGeometry x="-0.3279" y="1" relative="1" as="geometry">
            <mxPoint as="offset" />
          </mxGeometry>
        </mxCell>
        <mxCell id="kAjAqvouVaA5MMBCOgn0-39" style="edgeStyle=orthogonalEdgeStyle;rounded=0;orthogonalLoop=1;jettySize=auto;html=1;entryX=0.5;entryY=0;entryDx=0;entryDy=0;curved=1;exitX=0.5;exitY=1;exitDx=0;exitDy=0;dashed=1;" edge="1" parent="1" source="kAjAqvouVaA5MMBCOgn0-19" target="kAjAqvouVaA5MMBCOgn0-38">
          <mxGeometry relative="1" as="geometry" />
        </mxCell>
        <mxCell id="kAjAqvouVaA5MMBCOgn0-42" value="结束" style="edgeStyle=orthogonalEdgeStyle;rounded=0;orthogonalLoop=1;jettySize=auto;html=1;curved=1;exitX=0.5;exitY=1;exitDx=0;exitDy=0;" edge="1" parent="1" source="kAjAqvouVaA5MMBCOgn0-19" target="kAjAqvouVaA5MMBCOgn0-24">
          <mxGeometry relative="1" as="geometry" />
        </mxCell>
        <mxCell id="kAjAqvouVaA5MMBCOgn0-19" value="第一个一分钟窗口" style="whiteSpace=wrap;html=1;fontSize=14;rounded=1;" vertex="1" parent="1">
          <mxGeometry x="70" y="250" width="120" height="30" as="geometry" />
        </mxCell>
        <mxCell id="kAjAqvouVaA5MMBCOgn0-29" value="结束" style="edgeStyle=orthogonalEdgeStyle;rounded=0;orthogonalLoop=1;jettySize=auto;html=1;entryX=0.5;entryY=0;entryDx=0;entryDy=0;curved=1;" edge="1" parent="1" source="kAjAqvouVaA5MMBCOgn0-20" target="kAjAqvouVaA5MMBCOgn0-26">
          <mxGeometry relative="1" as="geometry" />
        </mxCell>
        <mxCell id="kAjAqvouVaA5MMBCOgn0-47" style="edgeStyle=orthogonalEdgeStyle;rounded=0;orthogonalLoop=1;jettySize=auto;html=1;entryX=0.5;entryY=0;entryDx=0;entryDy=0;curved=1;dashed=1;exitX=0.5;exitY=1;exitDx=0;exitDy=0;" edge="1" parent="1" source="kAjAqvouVaA5MMBCOgn0-20" target="kAjAqvouVaA5MMBCOgn0-38">
          <mxGeometry relative="1" as="geometry" />
        </mxCell>
        <mxCell id="kAjAqvouVaA5MMBCOgn0-20" value="第三个一分钟窗口" style="whiteSpace=wrap;html=1;fontSize=14;rounded=1;" vertex="1" parent="1">
          <mxGeometry x="370" y="250" width="120" height="30" as="geometry" />
        </mxCell>
        <mxCell id="kAjAqvouVaA5MMBCOgn0-23" value="......" style="text;html=1;align=center;verticalAlign=middle;resizable=0;points=[];autosize=1;strokeColor=none;fillColor=none;fontSize=14;" vertex="1" parent="1">
          <mxGeometry x="440" y="188" width="50" height="30" as="geometry" />
        </mxCell>
        <mxCell id="kAjAqvouVaA5MMBCOgn0-43" style="edgeStyle=orthogonalEdgeStyle;rounded=0;orthogonalLoop=1;jettySize=auto;html=1;entryX=0.5;entryY=0;entryDx=0;entryDy=0;curved=1;exitX=0.5;exitY=1;exitDx=0;exitDy=0;" edge="1" parent="1" source="kAjAqvouVaA5MMBCOgn0-24" target="kAjAqvouVaA5MMBCOgn0-30">
          <mxGeometry relative="1" as="geometry" />
        </mxCell>
        <mxCell id="kAjAqvouVaA5MMBCOgn0-24" value="触发一分钟窗口的结束事件" style="whiteSpace=wrap;html=1;fontSize=14;rounded=1;" vertex="1" parent="1">
          <mxGeometry x="510" y="320" width="90" height="40" as="geometry" />
        </mxCell>
        <mxCell id="kAjAqvouVaA5MMBCOgn0-44" style="edgeStyle=orthogonalEdgeStyle;rounded=0;orthogonalLoop=1;jettySize=auto;html=1;entryX=0.5;entryY=0;entryDx=0;entryDy=0;" edge="1" parent="1" source="kAjAqvouVaA5MMBCOgn0-25" target="kAjAqvouVaA5MMBCOgn0-30">
          <mxGeometry relative="1" as="geometry" />
        </mxCell>
        <mxCell id="kAjAqvouVaA5MMBCOgn0-25" value="触发一分钟窗口的结束事件" style="whiteSpace=wrap;html=1;fontSize=14;rounded=1;" vertex="1" parent="1">
          <mxGeometry x="670" y="320" width="90" height="40" as="geometry" />
        </mxCell>
        <mxCell id="kAjAqvouVaA5MMBCOgn0-45" style="edgeStyle=orthogonalEdgeStyle;rounded=0;orthogonalLoop=1;jettySize=auto;html=1;entryX=0.5;entryY=0;entryDx=0;entryDy=0;curved=1;exitX=0.5;exitY=1;exitDx=0;exitDy=0;" edge="1" parent="1" source="kAjAqvouVaA5MMBCOgn0-26" target="kAjAqvouVaA5MMBCOgn0-30">
          <mxGeometry relative="1" as="geometry" />
        </mxCell>
        <mxCell id="kAjAqvouVaA5MMBCOgn0-26" value="触发一分钟窗口的结束事件" style="whiteSpace=wrap;html=1;fontSize=14;rounded=1;" vertex="1" parent="1">
          <mxGeometry x="820" y="320" width="90" height="40" as="geometry" />
        </mxCell>
        <mxCell id="kAjAqvouVaA5MMBCOgn0-30" value="聚合数据入库&lt;br&gt;（一分钟时间窗口）" style="whiteSpace=wrap;html=1;fontSize=14;rounded=1;" vertex="1" parent="1">
          <mxGeometry x="650" y="450" width="130" height="40" as="geometry" />
        </mxCell>
        <mxCell id="kAjAqvouVaA5MMBCOgn0-37" value="全部的一分钟窗口均拉取完毕，触发整体结束事件" style="rounded=1;whiteSpace=wrap;html=1;fontSize=14;" vertex="1" parent="1">
          <mxGeometry x="740" y="140" width="120" height="62" as="geometry" />
        </mxCell>
        <mxCell id="kAjAqvouVaA5MMBCOgn0-51" style="edgeStyle=orthogonalEdgeStyle;rounded=0;orthogonalLoop=1;jettySize=auto;html=1;entryX=0.5;entryY=0;entryDx=0;entryDy=0;curved=1;exitX=0.5;exitY=1;exitDx=0;exitDy=0;" edge="1" parent="1" source="kAjAqvouVaA5MMBCOgn0-38" target="kAjAqvouVaA5MMBCOgn0-50">
          <mxGeometry relative="1" as="geometry" />
        </mxCell>
        <mxCell id="kAjAqvouVaA5MMBCOgn0-52" style="edgeStyle=orthogonalEdgeStyle;rounded=0;orthogonalLoop=1;jettySize=auto;html=1;entryX=0.5;entryY=0;entryDx=0;entryDy=0;" edge="1" parent="1" source="kAjAqvouVaA5MMBCOgn0-38" target="kAjAqvouVaA5MMBCOgn0-48">
          <mxGeometry relative="1" as="geometry" />
        </mxCell>
        <mxCell id="kAjAqvouVaA5MMBCOgn0-53" style="edgeStyle=orthogonalEdgeStyle;rounded=0;orthogonalLoop=1;jettySize=auto;html=1;entryX=0.5;entryY=0;entryDx=0;entryDy=0;curved=1;exitX=0.5;exitY=1;exitDx=0;exitDy=0;" edge="1" parent="1" source="kAjAqvouVaA5MMBCOgn0-38" target="kAjAqvouVaA5MMBCOgn0-49">
          <mxGeometry relative="1" as="geometry" />
        </mxCell>
        <mxCell id="kAjAqvouVaA5MMBCOgn0-38" value="数据队列" style="rounded=1;whiteSpace=wrap;html=1;fontSize=14;fillColor=#dae8fc;strokeColor=#6c8ebf;" vertex="1" parent="1">
          <mxGeometry x="235" y="440" width="90" height="40" as="geometry" />
        </mxCell>
        <mxCell id="kAjAqvouVaA5MMBCOgn0-48" value="聚合数据" style="whiteSpace=wrap;html=1;fontSize=14;rounded=1;" vertex="1" parent="1">
          <mxGeometry x="240" y="570" width="80" height="30" as="geometry" />
        </mxCell>
        <mxCell id="kAjAqvouVaA5MMBCOgn0-49" value="聚合数据" style="whiteSpace=wrap;html=1;fontSize=14;rounded=1;" vertex="1" parent="1">
          <mxGeometry x="370" y="570" width="80" height="30" as="geometry" />
        </mxCell>
        <mxCell id="kAjAqvouVaA5MMBCOgn0-50" value="聚合数据" style="whiteSpace=wrap;html=1;fontSize=14;rounded=1;" vertex="1" parent="1">
          <mxGeometry x="110" y="570" width="80" height="30" as="geometry" />
        </mxCell>
        <mxCell id="kAjAqvouVaA5MMBCOgn0-54" value="每个聚合器使用一个单线程从队列里取数据进行聚合" style="text;html=1;align=center;verticalAlign=middle;resizable=0;points=[];autosize=1;strokeColor=none;fillColor=none;" vertex="1" parent="1">
          <mxGeometry x="140" y="500" width="300" height="30" as="geometry" />
        </mxCell>
      </root>
    </mxGraphModel>
  </diagram>
</mxfile>
